<?xml version="1.0" encoding="UTF-8" standalone="no"?>
<!DOCTYPE svg PUBLIC "-//W3C//DTD SVG 1.1//EN" "http://www.w3.org/Graphics/SVG/1.1/DTD/svg11.dtd">
<svg version="1.1" xmlns="http://www.w3.org/2000/svg" xmlns:xlink="http://www.w3.org/1999/xlink" preserveAspectRatio="xMidYMid meet" viewBox="0 0 640 640" width="640" height="640"><defs><path d="M80 232C80 320 129.5 370 159.5 370C171.88 370 179 335.5 179 325.75C179 314.13 149.38 289.38 149.38 241C149.38 140.5 225.88 69.25 324.88 69.25C410 69.25 473 117.63 473 206.5C473 272.88 446.37 397.38 360.12 397.38C329 397.38 302.38 374.88 302.38 342.62C302.38 295.37 335.38 249.62 335.38 200.87C335.38 118.12 218 133.12 218 233.12C218 254.12 220.62 277.38 230 296.5C212.75 370.75 177.5 481.38 177.5 557.88C177.5 581.5 180.87 604.75 183.12 628.37C187.37 633.12 185.25 632.62 191.75 630.25C254.75 544 252.5 527.12 281 414.25C296.38 443.5 336.13 459.25 367.62 459.25C500.37 459.25 560 329.87 560 213.25C560 89.13 452.75 8.13 335 8.13C206.75 8.13 80 93.63 80 232Z" id="caVCZjeFj"></path></defs><g><g><g><use xlink:href="#caVCZjeFj" opacity="1" fill="#ffffff" fill-opacity="1"></use><g><use xlink:href="#caVCZjeFj" opacity="1" fill-opacity="0" stroke="#000000" stroke-width="1" stroke-opacity="0"></use></g></g></g></g></svg>